<?xml version="1.0" encoding="utf-8"?>
<!-- Generator: Adobe Illustrator 21.0.2, SVG Export Plug-In . SVG Version: 6.00 Build 0)  -->
<svg version="1.1" id="Layer_1" xmlns="http://www.w3.org/2000/svg" xmlns:xlink="http://www.w3.org/1999/xlink" x="0px" y="0px"
	 viewBox="0 0 143.1 143.1" style="enable-background:new 0 0 143.1 143.1;" xml:space="preserve">
<style type="text/css">
	.st0{fill:#FFFFFF;stroke:#FFFFFF;stroke-width:0.75;stroke-miterlimit:10;}
	.st1{fill:#010101;}
	.st2{font-family:'Paralucent-Medium';}
	.st3{font-size:10px;}
	.st4{font-size:6px;}
</style>
<path class="st0" d="M142.7,71.5c0,39.3-31.9,71.2-71.2,71.2S0.4,110.8,0.4,71.5S32.2,0.4,71.5,0.4S142.7,32.2,142.7,71.5z
	 M71.5,14.3c-31.6,0-57.2,25.6-57.2,57.2s25.6,57.2,57.2,57.2s57.2-25.6,57.2-57.2S103.1,14.3,71.5,14.3z"/>
<g>
	<g>
		<text transform="matrix(1 0 0 1 68.0317 11.4913)" class="st1 st2 st3">N</text>
	</g>
	<g>
		<text transform="matrix(1 0 0 1 70.2163 139.3829)" class="st1 st2 st3">S</text>
	</g>
	<g>
		<text transform="matrix(1 0 0 1 2.3751 76.0412)" class="st1 st2 st3">W</text>
	</g>
	<g>
		<text transform="matrix(1 0 0 1 133.7645 74.9429)" class="st1 st2 st3">E</text>
	</g>
	<g>
		<text transform="matrix(1 0 0 1 118.2865 33.6034)" class="st1 st2 st4">NE</text>
	</g>
	<g>
		<text transform="matrix(1 0 0 1 114.897 118.5562)" class="st1 st2 st4">SE</text>
	</g>
	<g>
		<text transform="matrix(1 0 0 1 19.3272 118.5564)" class="st1 st2 st4">SW</text>
	</g>
	<g>
		<text transform="matrix(1 0 0 1 16.3884 34.2571)" class="st1 st2 st4">NW</text>
	</g>
</g>
</svg>
